<?xml version="1.0" encoding="UTF-8" standalone="no"?>
<!-- Created with Inkscape (http://www.inkscape.org/) -->

<svg
   width="97.487373mm"
   height="100.43728mm"
   viewBox="0 0 97.487373 100.43728"
   version="1.1"
   id="svg1"
   inkscape:export-filename="bitmap.svg"
   inkscape:export-xdpi="96"
   inkscape:export-ydpi="96"
   xml:space="preserve"
   inkscape:version="1.4.3 (0d15f75, 2025-12-25)"
   sodipodi:docname="sfe_map_icons.svg"
   xmlns:inkscape="http://www.inkscape.org/namespaces/inkscape"
   xmlns:sodipodi="http://sodipodi.sourceforge.net/DTD/sodipodi-0.dtd"
   xmlns="http://www.w3.org/2000/svg"
   xmlns:svg="http://www.w3.org/2000/svg"><sodipodi:namedview
     id="namedview1"
     pagecolor="#ffffff"
     bordercolor="#000000"
     borderopacity="0.25"
     inkscape:showpageshadow="2"
     inkscape:pageopacity="0.0"
     inkscape:pagecheckerboard="0"
     inkscape:deskcolor="#d1d1d1"
     inkscape:document-units="mm"
     inkscape:zoom="0.25990636"
     inkscape:cx="-675.2432"
     inkscape:cy="798.36447"
     inkscape:window-width="2560"
     inkscape:window-height="1369"
     inkscape:window-x="2552"
     inkscape:window-y="-8"
     inkscape:window-maximized="1"
     inkscape:current-layer="layer1"><inkscape:page
       x="0"
       y="0"
       width="97.487373"
       height="100.43728"
       id="page2"
       margin="0"
       bleed="0" /></sodipodi:namedview><defs
     id="defs1" /><g
     inkscape:label="Layer 1"
     inkscape:groupmode="layer"
     id="layer1"
     transform="translate(287.31939,-1644.4376)"><g
       id="g3"
       inkscape:label="base"
       transform="matrix(0.60251535,0,0,0.60251535,124.86215,1849.0844)"
       inkscape:export-filename="planetaryfortress.svg"
       inkscape:export-xdpi="96"
       inkscape:export-ydpi="96"><path
         style="fill:#ffffff;fill-opacity:1;stroke-width:0.411956;stroke-linejoin:round"
         d="m -630.12211,-196.78381 0.53986,6.92837 10.43757,4.40896 7.82815,6.3885 2.78934,4.76888 6.11857,0.17996 2.87933,-5.21877 15.02648,-10.2576 4.229,-1.79957 -0.53989,-7.55823 -4.5889,-5.03882 0.35991,-1.34968 11.69725,-4.58892 5.66868,0.35991 6.29851,-3.59915 4.76887,2.24947 14.12669,-8.0981 3.68914,-8.27806 4.49895,-3.77911 8.81792,-7.28829 2.33945,-9.98766 -5.21877,-3.95907 -2.06952,-16.73606 -9.35778,-9.98768 -7.55825,-8.99787 0.17997,-13.58683 -9.71772,-14.84651 -7.82818,-3.14925 -2.60937,-4.31898 -13.22689,-9.8977 -13.67679,-4.04905 -9.53778,2.87933 -5.66867,1.88958 -5.57869,-2.06952 -12.23711,7.01834 -7.37828,6.11856 -4.49894,-1.97953 -16.01624,9.4478 -3.23924,7.46823 -0.80981,10.25761 6.65843,5.75863 0.26995,7.55824 -7.19831,5.9386 -9.71772,0.8998 -6.3885,9.08785 -1.43967,9.44779 -0.4499,7.46824 -5.03881,2.1595 -0.35991,6.3885 1.16972,4.40896 5.21878,1.88956 13.1369,11.42732 -2.47612,4.80675 2.22686,3.5948 24.75,21.34608 2.70407,0.66806 4.58097,-3.14943 z"
         id="path3" /><g
         id="g24"><path
           style="display:inline;fill:#ffffff;fill-opacity:1;stroke:#000000;stroke-width:0.216;stroke-linejoin:round;stroke-dasharray:none;stroke-opacity:1"
           d="m -199.90874,444.10026 -0.57262,-21.50515 11.57969,-15.26992 0.38175,-9.73458 -5.53535,-2.29049 -12.47043,2.67223 -4.45373,7.44411 -2.35411,15.65166 -4.00836,2.41774 -0.57262,7.25321 4.19923,3.75385 z"
           id="path5"
           transform="matrix(1.1182119,0,0,1.1182119,-439.25682,-721.49864)" /><path
           style="fill:#ffffff;fill-opacity:1;stroke:#000000;stroke-width:0.216;stroke-linejoin:round;stroke-dasharray:none;stroke-opacity:1"
           d="m -170.32326,469.35924 1.68605,-3.9129 2.8313,-1.17708 0.0954,-14.60185 1.24068,-8.17578 6.42609,-4.96271 2.8313,-0.34994 14.88817,0.0636 4.16742,2.60861 2.76767,2.73584 1.87693,11.64334 0.0954,10.84799 1.84511,0.38177 3.11761,3.97653 -0.31812,4.80367 -4.6446,4.23103 -9.89364,5.72622 -1.8133,1.33612 -1.20887,3.84929 -5.28085,0.69987 -3.3403,-1.30429 -1.0498,-4.00835 -16.31973,-9.73458 z"
           id="path6"
           transform="matrix(1.1182119,0,0,1.1182119,-439.25682,-721.49864)" /><path
           style="fill:#ffffff;fill-opacity:1;stroke:#000000;stroke-width:0.216;stroke-linejoin:round;stroke-dasharray:none;stroke-opacity:1"
           d="m -96.041452,421.19536 1.017995,-16.31971 0.159062,-1.62245 4.453728,-6.10796 6.807841,5.15361 3.594793,9.35281 0.413562,8.74839 3.976542,2.70407 0.286311,6.58513 -5.185413,5.47175 -7.253213,5.88526 -2.195049,0.89074 -0.508998,-3.37209 -0.222686,-7.88947 -2.608612,-7.73039 z"
           id="path7"
           transform="matrix(1.1182119,0,0,1.1182119,-439.25682,-721.49864)" /><path
           style="display:inline;fill:#ffffff;fill-opacity:1;stroke:#000000;stroke-width:0.216;stroke-linejoin:round;stroke-dasharray:none;stroke-opacity:1"
           d="m -176.22364,447.06008 2.65437,-11.1124 8.86292,-10.25758 9.22284,-11.9222 2.1145,-7.73819 1.61962,-3.0593 10.30259,-7.51321 -5.17379,-3.37423 -1.43966,0.4949 -10.34757,6.29851 -3.14926,0.98978 -3.8691,-1.03476 -5.17378,4.81386 -8.81793,9.85269 -7.42326,8.593 -0.80981,3.23921 -0.13497,12.19216 0.49489,0.85479 z"
           id="path15"
           transform="matrix(1.1182119,0,0,1.1182119,-439.25682,-721.49864)" /><path
           style="fill:#ffffff;fill-opacity:1;stroke:#000000;stroke-width:0.241534;stroke-linejoin:round;stroke-dasharray:none;stroke-opacity:1"
           d="m -651.48495,-291.99102 1.28062,-8.82208 1.06719,-4.98021 11.81022,-8.6798 v -3.415 l 3.415,-3.415 -4.90907,-2.77469 -15.22521,9.10666 -3.55729,6.47428 -0.85376,8.39522 1.56521,4.41103 z"
           id="path18"
           transform="translate(1.467653e-5)" /><path
           style="fill:#ffffff;fill-opacity:1;stroke:#000000;stroke-width:0.241534;stroke-linejoin:round;stroke-dasharray:none;stroke-opacity:1"
           d="m -629.82249,-303.03897 8.35108,-8.30078 2.51539,-3.6976 2.89269,-3.57186 9.38239,-6.53999 5.15655,-0.27672 4.70377,1.20741 5.00562,2.74176 1.10677,1.45892 -0.0755,1.78593 -1.96201,2.28901 -9.08054,5.88599 -5.5087,3.52154 -4.32646,4.75409 -2.66631,3.06878 -2.43993,3.47124 -1.10676,-0.0755 -11.54563,-6.61546 z"
           id="path19"
           transform="translate(1.467653e-5)" /><path
           style="fill:#ffffff;fill-opacity:1;stroke:#000000;stroke-width:0.241534;stroke-linejoin:round;stroke-dasharray:none;stroke-opacity:1"
           d="m -564.27152,-318.48344 0.0503,2.616 -3.72277,3.42094 -5.232,3.37062 7.64677,7.79769 0.10062,7.39523 -0.25154,0.95584 1.10677,0.654 h 1.9117 l 4.62831,-3.52154 9.55846,-7.79769 -9.45785,-13.23093 z"
           id="path22"
           transform="translate(1.467653e-5)" /></g><path
         style="fill:#000000;stroke-width:0.628259"
         d="m -608.05258,-173.28658 c -2.28878,-0.59506 -3.26903,-1.62922 -3.85082,-4.06258 -0.19673,-0.82282 -0.4393,-1.57782 -0.53905,-1.67779 -0.0997,-0.1 -0.76533,-0.38961 -1.47906,-0.64365 -1.53029,-0.5447 -3.17474,-1.67483 -5.71919,-3.93044 -1.71684,-1.52195 -1.97246,-1.68055 -5.9492,-3.69127 -2.2854,-1.15554 -4.39476,-2.24892 -4.68744,-2.42974 -0.83242,-0.51424 -1.05327,-1.13673 -1.22955,-3.46563 -0.0872,-1.15221 -0.18916,-2.12554 -0.22656,-2.16293 -0.0374,-0.0374 -1.01871,0.62187 -2.18071,1.46503 -1.16201,0.84315 -2.37816,1.60629 -2.70255,1.69586 -0.85869,0.2371 -1.67583,-0.068 -2.89334,-1.08039 -1.2504,-1.03972 -11.13159,-9.64031 -13.0082,-11.32236 -2.3472,-2.10383 -7.40166,-6.4594 -10.13984,-8.73776 -3.3481,-2.78586 -3.86019,-3.27074 -4.24846,-4.02278 -0.78856,-1.52729 -0.56351,-2.95299 0.79787,-5.0546 l 0.92061,-1.42116 -0.39728,-0.2782 c -0.50767,-0.35551 -3.15672,-2.62005 -6.54767,-5.59726 -6.77117,-5.94501 -6.26408,-5.55388 -7.6649,-5.91215 -2.49723,-0.63868 -3.48326,-1.56892 -4.00058,-3.77419 -0.24114,-1.02797 -0.30285,-1.98528 -0.30285,-4.69865 0,-5.03579 0.28879,-5.60519 3.78772,-7.46838 l 1.90397,-1.01386 0.0871,-4.11178 c 0.1605,-7.57353 1.23739,-11.37492 4.70287,-16.601 1.81367,-2.73508 4.41555,-4.97676 6.22745,-5.36535 0.46169,-0.099 2.46376,-0.33826 4.44905,-0.53167 l 3.60961,-0.35164 2.77595,-2.84872 2.77596,-2.84874 0.0407,-2.45184 c 0.0224,-1.34851 0.0448,-2.69245 0.0499,-2.98651 0.009,-0.50807 -0.0941,-0.59817 -2.067,-1.81116 -2.4217,-1.48891 -3.03941,-2.12785 -3.50057,-3.6209 -0.79944,-2.58827 -1.16404,-7.91036 -0.69819,-10.19142 0.26639,-1.30444 2.88215,-6.98721 3.74311,-8.13196 1.48912,-1.97996 4.84936,-4.33779 12.15592,-8.52964 2.00193,-1.14853 3.94678,-2.17097 4.32189,-2.27209 1.05229,-0.28368 2.26775,-0.0588 3.80628,0.70425 l 1.37759,0.68321 3.31767,-2.48937 c 5.19885,-3.90087 9.39015,-6.71426 13.67845,-9.18157 1.43599,-0.82621 1.64511,-0.89736 2.82586,-0.96146 1.15254,-0.0626 1.4988,0.002 3.60228,0.66879 3.79363,1.20305 4.01188,1.24461 4.62866,0.88129 1.78672,-1.0525 4.89816,-2.68386 6.24746,-3.27562 2.71642,-1.19133 3.28649,-1.34911 5.16477,-1.42952 1.85644,-0.0795 1.67547,-0.111 9.30476,1.62049 2.7899,0.63318 3.51658,1.0135 8.18957,4.28616 1.94335,1.361 5.25381,3.62139 7.35658,5.02311 2.10277,1.40171 4.07346,2.77869 4.37932,3.05995 0.82711,0.76058 1.50374,1.81182 2.29029,3.55831 l 0.70427,1.56376 2.46345,1.08239 c 4.55603,2.00184 4.82868,2.286 10.17568,10.60538 1.58362,2.46394 3.125,4.8539 3.42531,5.31103 0.3003,0.45712 0.67784,1.09294 0.83896,1.41292 1.1212,2.22663 1.14416,5.90609 0.071,11.37363 l -0.48688,2.48049 0.36784,0.25765 c 1.15711,0.81047 4.45551,3.55465 4.99549,4.15611 0.34854,0.38822 1.07998,1.6168 1.62543,2.73019 0.97723,1.99476 1.01292,2.04122 2.4415,3.17876 1.94736,1.55063 4.62816,4.17593 5.89783,5.77575 1.28471,1.61877 2.02367,2.90114 2.44389,4.24107 0.70782,2.257 1.57969,8.15208 1.75277,11.85118 0.16794,3.58929 0.11352,3.41789 1.27035,4.00185 1.43125,0.72249 2.38325,1.66112 2.82712,2.7874 0.32548,0.82589 0.37873,1.32217 0.43763,4.07893 0.13146,6.15294 -0.63336,8.14061 -3.45555,8.98055 -0.64379,0.19161 -1.31551,0.78943 -4.82058,4.29026 -2.2399,2.23719 -4.39824,4.2814 -4.79629,4.54268 -0.39805,0.26128 -1.14607,0.55915 -1.66226,0.66192 l -0.93854,0.18687 -0.0855,1.99055 c -0.0781,1.81817 -0.13222,2.08535 -0.62432,3.08497 -1.28913,2.61859 -5.2919,5.88884 -12.80229,10.45941 -2.68651,1.63493 -3.45493,1.89086 -5.31817,1.77129 -1.12397,-0.0721 -1.45412,-0.18113 -3.0853,-1.01856 l -1.82663,-0.93777 -2.42438,1.39066 c -1.33341,0.76486 -2.67865,1.47568 -2.98942,1.5796 -0.77654,0.25966 -2.31923,0.23582 -4.02271,-0.0622 l -1.42944,-0.25005 -2.64312,1.1791 c -1.45371,0.6485 -3.80255,1.66614 -5.21963,2.26142 -1.41709,0.59528 -2.594,1.09879 -2.61537,1.11891 -0.0214,0.0201 0.67607,0.77959 1.54986,1.6877 2.06013,2.14108 2.21086,2.44595 2.40486,4.86408 0.17315,2.15816 -0.0264,6.42034 -0.32691,6.98182 -0.31072,0.58059 -1.08801,1.05724 -5.58368,3.42408 -3.23739,1.70439 -4.60962,2.52297 -5.46852,3.26217 -1.60488,1.38121 -4.16974,3.05413 -5.97801,3.89914 l -1.53238,0.71608 -0.21774,1.30332 c -0.11976,0.71683 -0.31522,1.53817 -0.43436,1.8252 -0.30854,0.74333 -1.36128,1.85552 -2.12526,2.24527 -1.6295,0.83131 -5.02096,1.04802 -7.26614,0.4643 z m 5.33561,-2.84041 c 1.02931,-0.30839 1.32381,-0.76363 1.66714,-2.57709 0.16817,-0.88821 0.28829,-1.63084 0.26694,-1.65028 -0.0214,-0.0195 -1.04865,0.0129 -2.28289,0.072 -1.23423,0.0591 -3.17908,0.0614 -4.32189,0.005 -1.14282,-0.0561 -2.0993,-0.0845 -2.12554,-0.0631 -0.0865,0.0706 0.60888,3.05744 0.79111,3.39794 0.2042,0.38154 0.69732,0.67779 1.41754,0.8516 0.80794,0.19498 3.89713,0.17048 4.58759,-0.0364 z m 2.08735,-5.55323 c 1.40267,-0.2446 3.20949,-0.91042 3.52969,-1.30071 0.084,-0.10239 0.20779,-2.01159 0.27507,-4.24265 l 0.12233,-4.05648 -0.39733,0.11606 c -1.72834,0.5049 -14.36467,0.53401 -15.99725,0.0369 l -0.80575,-0.24536 0.0942,4.18582 0.0942,4.18583 0.81783,0.4628 c 2.01757,1.14172 8.17133,1.57206 12.26693,0.85785 z m -14.10149,-6.61941 -0.0536,-3.51126 -2.38413,-1.21745 c -1.31127,-0.66959 -2.42524,-1.17634 -2.47548,-1.1261 -0.0892,0.0892 0.19754,4.36893 0.40053,5.97828 0.10092,0.80018 0.12543,0.82831 2.28055,2.61777 l 2.17853,1.80888 0.0536,-0.51943 c 0.0295,-0.28569 0.0295,-2.0995 0,-4.03069 z m 21.29795,2.72224 c 1.1877,-0.86853 2.19724,-1.67387 2.24341,-1.78964 0.13731,-0.3443 0.65416,-6.68015 0.55317,-6.78114 -0.0511,-0.0511 -1.21301,0.46811 -2.58205,1.15378 -1.91146,0.95732 -2.51304,1.33578 -2.59202,1.63065 -0.17534,0.65469 -0.12444,7.48214 0.0553,7.42092 0.0895,-0.0305 1.13446,-0.76603 2.32217,-1.63457 z m 7.48412,-4.29303 c 2.97883,-1.56678 3.7583,-2.04647 3.8482,-2.36817 0.1499,-0.53644 0.17513,-4.54857 0.0351,-5.57066 -0.10055,-0.73364 -0.24432,-0.94623 -1.55049,-2.29276 l -1.43967,-1.48416 -0.96888,-0.0803 -0.96889,-0.0803 1.27268,1.83648 c 0.69998,1.01006 1.27268,1.94373 1.27268,2.07481 0,0.38113 -0.44698,0.6804 -2.75769,1.84638 l -2.1759,1.09795 -0.19883,2.62065 c -0.10936,1.44136 -0.24383,3.01336 -0.29884,3.49334 -0.055,0.47998 -0.0336,0.87244 0.0476,0.87214 0.0812,-3e-4 1.82853,-0.88469 3.88304,-1.96531 z m -34.50425,0.6776 c -0.0562,-0.61711 -0.18766,-2.15923 -0.29205,-3.42692 l -0.18982,-2.30489 -2.45184,-1.23523 c -2.14625,-1.08126 -2.45185,-1.28554 -2.45185,-1.63894 0,-0.22205 0.48621,-1.15539 1.08048,-2.07409 0.59425,-0.9187 1.08047,-1.70594 1.08047,-1.74943 0,-0.0435 -0.41881,-0.0791 -0.93068,-0.0791 -1.40666,0 -1.93089,0.33554 -3.06604,1.96248 l -0.99008,1.41903 v 2.61036 c 0,1.4357 0.0459,2.8399 0.10201,3.12046 0.095,0.47478 0.37405,0.64848 4.03101,2.50879 2.16094,1.09927 3.9856,2.00112 4.0548,2.00408 0.0692,0.003 0.0798,-0.49952 0.0236,-1.11664 z m 22.54055,-2.88722 c 0.87617,-0.19411 7.26671,-3.26445 7.35901,-3.53565 0.15543,-0.45669 -0.26386,-18.32926 -0.43999,-18.75485 -0.20955,-0.50635 -4.61535,-5.28851 -6.91231,-7.50279 -0.82379,-0.79414 -1.69079,-1.51726 -1.92667,-1.60694 -0.535,-0.20341 -9.20607,-0.20716 -10.77772,-0.004 -1.0817,0.13937 -1.19508,0.19643 -2.05328,1.03348 -1.29577,1.26383 -5.9653,6.69523 -6.63564,7.71831 -0.21145,0.32271 -0.25216,1.76645 -0.27695,9.82172 l -0.029,9.44338 2.57651,1.36839 c 3.89816,2.07031 3.94261,2.08411 7.14776,2.2191 3.45375,0.14548 10.97726,0.02 11.96833,-0.19949 z m -16.12401,-5.49893 c -1.4915,-0.56836 -2.64543,-1.38875 -2.9407,-2.09073 -0.36065,-0.85739 -0.54841,-13.06782 -0.21904,-14.24424 0.17271,-0.61683 0.48171,-1.01424 1.64465,-2.11513 1.99014,-1.88398 2.59342,-2.29499 3.36853,-2.29499 0.42078,0 0.75515,0.11518 0.97628,0.3363 0.33105,0.33107 0.3356,0.48961 0.29089,10.15431 l -0.0454,9.81798 -0.46639,0.4011 c -0.58256,0.50101 -1.35928,0.51155 -2.6088,0.0354 z m 1.96148,-0.83112 c 0.15034,-0.15034 0.19948,-2.46501 0.19948,-9.39703 0,-8.1982 -0.0283,-9.20843 -0.26056,-9.29755 -0.37238,-0.1429 -0.8554,0.15829 -2.33862,1.45823 -2.05836,1.80402 -1.92104,1.15832 -1.85495,8.72206 0.051,5.83434 0.0862,6.541 0.34615,6.93766 0.35964,0.54887 0.8431,0.86992 2.06944,1.37423 1.07641,0.44265 1.54702,0.49444 1.83906,0.2024 z m 12.07161,0.81218 -0.44718,-0.38465 -0.17229,-9.46443 c -0.0948,-5.20543 -0.122,-9.66484 -0.0605,-9.90979 0.17428,-0.69441 0.55538,-0.96728 1.35091,-0.96728 0.80545,0 1.64188,0.49716 4.03068,2.39579 2.13723,1.6987 1.96055,0.89659 1.96055,8.90068 0,8.0277 0.0708,7.66252 -1.66839,8.60759 -2.18488,1.18727 -4.18619,1.51673 -4.99376,0.82209 z m 2.85426,-1.02813 c 1.60245,-0.53793 2.52077,-1.12192 2.6796,-1.70407 0.0686,-0.25136 0.1261,-3.34749 0.12782,-6.88029 0.003,-6.18933 -0.009,-6.43697 -0.32934,-6.79961 -0.58726,-0.66479 -4.24778,-3.31669 -4.57816,-3.31669 -0.19538,0 -0.3568,0.14981 -0.41613,0.3862 -0.0533,0.21241 -0.0187,4.45216 0.0769,9.42166 0.13395,6.96415 0.22214,9.06614 0.38466,9.16929 0.34215,0.21717 0.74596,0.16283 2.05468,-0.27649 z m -37.21999,1.34799 c 1.98407,-1.42857 2.61629,-1.96919 2.57573,-2.20251 -0.0296,-0.17007 -0.16051,-0.68322 -0.29098,-1.14035 -0.22523,-0.78913 -0.31763,-0.88443 -1.82833,-1.88583 -0.87511,-0.58008 -1.72903,-1.28148 -1.89759,-1.55866 -0.207,-0.34039 -0.34439,-1.0096 -0.42327,-2.06173 l -0.11679,-1.55775 -0.85295,0.60871 c -1.5058,1.07461 -1.37822,0.62463 -1.59455,5.62413 l -0.1942,4.48812 0.88347,0.78775 c 0.4859,0.43326 0.93442,0.78856 0.99672,0.78957 0.0623,10e-4 1.29651,-0.85014 2.74274,-1.89145 z m 13.49874,-2.94912 0.0186,-1.10229 -0.73852,-0.18597 c -0.40618,-0.10227 -0.76997,-0.18595 -0.80842,-0.18595 -0.17236,0 -2.47895,3.67596 -2.37304,3.78186 0.0654,0.0654 0.918,0.49868 1.89475,0.96292 l 1.77589,0.84406 0.10606,-1.50616 c 0.0584,-0.82839 0.11444,-2.0022 0.12467,-2.60847 z m 33.61275,3.25506 c 1.32728,-0.66566 1.79656,-0.97799 1.68581,-1.12203 -0.0844,-0.10978 -0.69169,-0.9603 -1.3495,-1.89006 -1.18842,-1.6797 -1.19937,-1.6895 -1.71893,-1.5405 -0.28759,0.0825 -0.59003,0.2171 -0.67207,0.29915 -0.13869,0.13869 0.01,5.17588 0.15275,5.17588 0.0344,0 0.89033,-0.41509 1.90194,-0.92244 z m -52.48198,-4.18903 c 0.0621,-1.89707 0.15641,-3.79233 0.20952,-4.21169 l 0.0965,-0.76248 -5.71108,-4.91473 c -3.1411,-2.70311 -7.58115,-6.52874 -9.86676,-8.50141 -2.28562,-1.97268 -4.20558,-3.58815 -4.26657,-3.58994 -0.061,-0.002 -0.19515,0.38946 -0.29814,0.86944 -0.27335,1.27406 -1.00389,5.78827 -1.00389,6.20336 0,0.3595 0.27842,0.61049 13.63059,12.28716 2.69704,2.3586 5.35251,4.68586 5.90106,5.17171 0.54854,0.48584 1.042,0.8866 1.09656,0.89057 0.0545,0.004 0.15003,-1.54493 0.21216,-3.44199 z m 11.44075,0.31675 c 0.89402,-1.23869 1.34909,-1.58621 2.5434,-1.9422 l 0.6649,-0.19819 v -2.55817 -2.55817 l -0.58179,-0.0511 c -1.45049,-0.12742 -3.98991,-0.76493 -5.06004,-1.2703 -0.64541,-0.30479 -1.95821,-1.04294 -2.91733,-1.64033 -0.95913,-0.59739 -1.76993,-1.0601 -1.80178,-1.02824 -0.13728,0.13728 0.35468,7.02064 0.52817,7.38992 0.10539,0.22434 0.78875,0.80447 1.51858,1.28919 1.74755,1.16065 1.97583,1.42167 2.40968,2.75535 0.31033,0.95397 0.44783,1.16235 0.89165,1.35137 0.45935,0.19564 0.54957,0.18973 0.72408,-0.0474 0.10964,-0.14899 0.59586,-0.82027 1.08048,-1.49173 z m 7.48867,-7.709 0.089,-5.86434 0.85345,-3.90633 c 0.46939,-2.14848 1.41799,-6.17601 2.108,-8.95005 0.69002,-2.77403 1.22748,-5.0708 1.19437,-5.10391 -0.0897,-0.0897 -4.83518,3.48333 -5.58453,4.20483 -0.63854,0.61482 -0.65253,0.65493 -0.99948,2.8676 -0.80624,5.1416 -0.92302,7.0024 -0.93369,14.8773 l -0.0101,7.48021 1.31272,0.11897 c 0.72199,0.0654 1.39521,0.14884 1.49604,0.18534 0.10083,0.0365 0.22876,0.0413 0.28428,0.0106 0.0555,-0.0307 0.14101,-2.69479 0.18997,-5.92018 z m 32.84014,5.76185 0.98862,-0.11185 0.10308,-0.75202 c 0.24459,-1.78448 0.10203,-9.58174 -0.23019,-12.59082 -0.50259,-4.552 -1.49846,-11.15454 -1.74186,-11.54838 -0.2352,-0.38055 -5.57115,-4.54808 -5.68168,-4.43755 -0.0344,0.0344 0.20599,0.91508 0.53427,1.95699 0.9687,3.07446 2.14149,7.25897 3.30593,11.79551 1.02057,3.97601 1.09074,4.3673 1.09074,6.08191 0,1.00788 0.0494,3.64325 0.10991,5.85637 0.0861,3.15231 0.15568,4.0063 0.32123,3.94277 0.11623,-0.0446 0.6562,-0.13142 1.19995,-0.19293 z m 6.70789,-5.21522 c 2.13328,-0.90842 4.77632,-2.05638 5.87342,-2.55101 l 1.99472,-0.89934 0.0515,-1.81277 c 0.0283,-0.99702 0.005,-2.19816 -0.0515,-2.66919 l -0.10302,-0.85643 -3.18994,1.53508 c -3.59626,1.73062 -6.72154,3.09017 -8.12601,3.53497 l -0.94663,0.2998 -0.0507,2.6259 c -0.0506,2.62148 -0.0501,2.62576 0.30936,2.53529 0.19804,-0.0498 2.1055,-0.83387 4.23878,-1.7423 z m -56.37144,0.11071 1.2207,-0.87542 -0.0395,-0.99463 c -0.0587,-1.4789 -0.33061,-4.38154 -0.63029,-6.72947 -0.24349,-1.9078 -0.23172,-3.2732 0.0387,-4.49419 0.0857,-0.38709 -0.26183,-0.6973 -4.24054,-3.78473 l -4.33394,-3.36308 -4.19778,2.71209 c -5.7208,3.69609 -5.94207,3.84491 -5.89837,3.96744 0.0468,0.13118 4.14555,3.68497 15.0669,13.06358 0.87676,0.7529 1.63895,1.37002 1.69376,1.37137 0.0548,0.001 0.64896,-0.39148 1.32035,-0.87296 z m 12.46234,-3.40493 c 0.007,-5.75332 0.8471,-14.42609 1.59532,-16.46042 0.21792,-0.59251 0.61055,-0.98943 2.36542,-2.39121 2.46726,-1.97084 4.20252,-3.16812 5.39931,-3.72534 l 0.86048,-0.40064 9.4165,-0.002 9.41649,-0.002 0.95072,0.50011 c 1.45142,0.76349 6.52941,4.69173 7.00681,5.42035 0.32872,0.50168 0.42926,0.97825 1.03039,4.88428 0.56818,3.69196 1.16471,8.58202 1.2268,10.05673 0.0376,0.89331 0.0767,0.99178 0.37444,0.9439 0.77175,-0.12409 4.4234,-1.69356 8.10356,-3.48288 3.48227,-1.6931 3.94789,-1.96539 3.94789,-2.30865 0,-0.56388 -3.66523,-11.71135 -4.95086,-15.0576 -0.20576,-0.53559 -0.9182,-1.47028 -2.21723,-2.90897 -2.28303,-2.52848 -6.45644,-6.85864 -6.60589,-6.854 -0.0583,0.002 -1.06091,0.70311 -2.22808,1.55843 -1.16716,0.85533 -2.42507,1.76509 -2.79534,2.0217 l -0.67325,0.46656 -12.37551,-0.0131 -12.37552,-0.0131 -3.2258,-2.09505 c -1.7742,-1.15228 -3.28774,-2.08878 -3.36342,-2.0811 -0.34186,0.0347 -8.31971,9.02877 -8.59676,9.69185 -0.371,0.88792 -1.97911,7.66214 -2.92444,12.31925 l -0.47238,2.32718 0.31283,2.4934 c 0.17204,1.37137 0.31507,2.60764 0.31782,2.74727 0.006,0.30067 3.53003,2.54503 5.33836,3.39979 1.323,0.62535 3.01891,1.04186 4.34935,1.06818 l 0.78958,0.0156 z m 59.37592,-0.96932 c 1.21479,-0.70572 2.47656,-1.45185 2.80395,-1.65807 l 0.59525,-0.37494 -0.2207,-2.03755 c -0.1214,-1.12065 -0.23965,-2.05648 -0.2628,-2.07963 -0.0231,-0.0231 -0.52831,0.25066 -1.12256,0.60847 -2.02991,1.22219 -2.85857,0.82646 -3.0577,-1.46024 -0.37261,-4.27885 -1.71999,-11.97739 -2.57432,-14.70894 -0.26618,-0.85104 -0.52709,-2.06078 -0.5798,-2.68833 -0.10877,-1.29493 0.0703,-1.02716 -3.34623,-5.00422 -10.79484,-12.56596 -10.16982,-11.73123 -9.67352,-12.91905 0.18113,-0.43351 1.17614,-1.3886 3.63169,-3.486 5.249,-4.48342 8.66219,-7.35538 9.11246,-7.66748 0.63424,-0.43962 1.64499,-0.36365 2.50698,0.18843 0.82534,0.5286 3.97506,3.73108 6.15951,6.26267 4.34381,5.0341 4.76636,5.89715 3.83919,7.84145 -0.25592,0.53667 -1.56959,1.71792 -4.9361,4.43855 -1.0066,0.81348 -1.93283,1.62461 -2.0583,1.8025 -0.37941,0.538 -0.84755,3.71008 -0.95081,6.44272 l -0.0974,2.57651 0.62715,1.03892 c 0.34494,0.57141 0.6775,1.03892 0.73905,1.03892 0.0616,0 0.16353,-0.76672 0.22664,-1.70383 0.0631,-0.9371 0.25924,-3.07627 0.43584,-4.7537 0.25914,-2.46155 0.3939,-3.18121 0.69859,-3.7307 0.27506,-0.49606 1.61808,-1.68775 4.94875,-4.39111 2.51417,-2.04066 4.57123,-3.77912 4.57123,-3.86325 0,-0.31589 -5.66255,-7.24603 -8.88584,-10.87497 -0.96397,-1.08529 -1.92868,-2.19154 -2.14381,-2.45834 -0.51241,-0.63549 -4.78058,-3.46419 -5.22704,-3.46419 -0.10796,0 -9.2712,7.8166 -12.2512,10.45076 -2.25778,1.99575 -4.32385,4.05316 -4.6121,4.59277 -0.52336,0.97972 -0.41799,8.38192 0.1402,9.85007 0.0929,0.24425 1.19461,1.494 2.44834,2.77721 4.25887,4.35908 6.18192,6.57029 6.71046,7.71601 0.26919,0.58354 1.55852,4.24884 2.86516,8.14511 l 2.37572,7.08414 0.11973,3.57372 c 0.0658,1.96555 0.15133,3.60534 0.18996,3.64397 0.16967,0.16967 3.02878,0.65759 3.5116,0.59927 0.29372,-0.0355 1.52796,-0.64191 2.74274,-1.34763 z m 11.18495,-0.32648 c 1.35819,-0.78203 1.26827,-0.46539 1.08353,-3.81567 -0.0907,-1.64565 -0.28534,-4.61892 -0.43244,-6.60728 l -0.26746,-3.61518 -1.6165,-1.62096 c -1.11155,-1.11461 -1.76385,-1.92388 -2.08819,-2.5907 l -0.47169,-0.96973 0.11058,-4.55199 c 0.0735,-3.02746 0.1791,-4.70237 0.31516,-5.001 0.18533,-0.40676 3.29754,-2.97041 8.64951,-7.12494 1.05998,-0.82283 1.93199,-1.5433 1.9378,-1.60106 0.0162,-0.16053 -3.9704,-1.50235 -4.73946,-1.59524 -0.60924,-0.0736 -0.76828,-0.008 -1.57915,0.64897 -0.49593,0.40193 -2.09853,1.69753 -3.56132,2.87909 -1.4628,1.18157 -3.16304,2.55881 -3.77831,3.06053 -0.61528,0.50172 -1.2295,1.14575 -1.36495,1.43117 -0.26759,0.5639 -0.63751,3.73259 -0.94085,8.05912 -0.17724,2.52794 -0.16529,2.91197 0.15247,4.90369 0.43113,2.70227 1.09724,8.05155 1.58181,12.70287 l 0.37092,3.56041 1.82323,1.04871 c 2.53681,1.45917 3.41574,1.60505 4.81531,0.79919 z m 4.02162,-2.46156 c 3.71103,-2.35293 7.46505,-5.24755 8.49963,-6.55381 0.29401,-0.37121 0.69437,-1.03619 0.8897,-1.47772 0.34925,-0.78944 0.35331,-0.90765 0.2444,-7.107 -0.0609,-3.46732 -0.14059,-6.33405 -0.17706,-6.37051 -0.0961,-0.0961 -11.95443,9.43026 -12.12695,9.74212 -0.0325,0.0587 0.0722,1.86459 0.23253,4.01307 0.16037,2.14849 0.34616,5.00966 0.41287,6.35818 0.0667,1.34851 0.17479,2.45184 0.2402,2.45184 0.0654,0 0.8685,-0.47527 1.78468,-1.05617 z m -110.49257,-4.688 c 0.55363,-3.4521 0.68881,-3.93068 1.29748,-4.59352 0.24076,-0.2622 0.36949,-0.55446 0.31116,-0.70646 -0.25291,-0.65907 -0.8876,-0.10031 -2.72652,2.40036 -1.52854,2.07857 -2.20398,3.15704 -2.20398,3.51903 0,0.25096 2.64221,2.70419 2.77234,2.57406 0.0245,-0.0245 0.27176,-1.46154 0.54952,-3.19347 z m 43.63721,1.06075 c 0.82283,-1.0081 2.31887,-2.67625 3.32454,-3.70701 1.59319,-1.63294 1.92888,-1.89817 2.60857,-2.0611 0.49519,-0.1187 2.7571,-0.18698 6.19376,-0.18698 5.079,0 5.4577,0.0207 6.12564,0.33466 0.47222,0.22197 1.90908,1.53651 4.26713,3.90388 1.95534,1.96307 3.57792,3.54647 3.60573,3.51866 0.0781,-0.0781 -1.63614,-6.5107 -2.57669,-9.66881 -1.27013,-4.26477 -1.98708,-6.29365 -2.30697,-6.52843 -0.22739,-0.16691 -2.23961,-0.20215 -9.49035,-0.16624 -10.46218,0.0518 -9.43547,-0.11032 -9.92316,1.56728 -0.55159,1.89738 -1.94329,7.55528 -2.66454,10.83249 -0.41607,1.89056 -0.79586,3.56827 -0.84397,3.72827 -0.17843,0.59338 0.22195,0.22008 1.68031,-1.56667 z m 53.19258,-0.0513 1.16359,-0.72621 -0.046,-1.13433 c -0.0503,-1.24052 -0.69601,-6.49515 -1.17224,-9.53916 -0.29454,-1.88263 -0.32429,-1.96059 -1.45277,-3.80708 -1.13553,-1.858 -1.15294,-1.90404 -1.21202,-3.20519 -0.10698,-2.35575 0.56862,-7.41394 1.11544,-8.3512 0.1607,-0.27545 1.74315,-1.71305 3.51654,-3.19468 1.83258,-1.53108 3.35039,-2.93021 3.51634,-3.24142 0.39304,-0.73706 0.37692,-1.42633 -0.0497,-2.12671 -1.63667,-2.68682 -9.07385,-10.75665 -10.16598,-11.03076 -0.2551,-0.064 -0.61144,-0.0314 -0.80844,0.074 -0.34892,0.18674 -7.3768,6.09496 -10.81966,9.09591 -1.31706,1.14801 -1.78693,1.65966 -1.78693,1.94579 0,0.44936 0.62647,1.30503 2.73687,3.73822 6.71786,7.74532 8.08485,9.33541 9.54221,11.09959 0.65724,0.79562 0.73701,0.99112 0.86309,2.11527 0.0764,0.68124 0.32386,1.82411 0.54991,2.53971 0.77931,2.46694 1.71863,7.57922 2.43479,13.25132 0.32308,2.55889 0.49832,3.26076 0.80706,3.2326 0.0574,-0.005 0.62793,-0.33631 1.2679,-0.73572 z m -88.67689,-5.76592 c 1.8714,-1.22521 4.09446,-2.66178 4.94013,-3.19237 0.84568,-0.5306 1.53761,-0.98984 1.53761,-1.02056 0,-0.0307 -0.63751,-0.56104 -1.41668,-1.17852 -1.18302,-0.93752 -1.46285,-1.2527 -1.69662,-1.91089 l -0.27994,-0.78819 -0.45109,0.32121 c -0.2481,0.17666 -0.78516,0.78787 -1.19348,1.35823 -0.74016,1.0339 -3.10789,3.41426 -5.74283,5.77348 l -1.38883,1.24349 0.97326,0.87152 c 0.53529,0.47935 1.05036,0.84424 1.14459,0.8109 0.0942,-0.0334 1.70248,-1.06309 3.57388,-2.2883 z m 16.42456,1.06723 c 0.45251,-2.13958 0.46075,-2.03621 -0.1625,-2.03691 -0.71322,-6.3e-4 -0.92325,-0.13397 -4.71441,-2.98962 -4.0507,-3.05114 -4.69045,-3.5881 -5.0279,-4.22006 -0.35376,-0.66248 -0.44585,-3.88488 -0.25587,-8.95299 0.12669,-3.37966 0.15854,-3.63626 0.49283,-3.97055 0.24957,-0.24957 0.56316,-0.35739 1.03946,-0.35739 0.60822,0 0.92027,0.18163 2.88169,1.67721 4.05009,3.08821 6.32559,4.93025 6.67431,5.40291 0.32286,0.43763 0.35141,0.74738 0.42899,4.65436 0.0531,2.67277 0.13337,4.00528 0.22218,3.68684 0.0765,-0.27427 0.32503,-1.1719 0.55231,-1.99472 0.22729,-0.82283 0.58733,-1.79525 0.8001,-2.16095 0.38486,-0.66149 5.2656,-6.25783 7.39355,-8.47757 0.61352,-0.63997 1.51626,-1.6872 2.00611,-2.32717 0.48984,-0.63997 2.49023,-3.13456 4.44529,-5.54352 5.81683,-7.16726 6.24978,-7.86336 7.09761,-11.41162 1.27145,-5.32112 2.34179,-7.8835 3.81335,-9.12907 0.73304,-0.62046 7.67125,-5.74955 9.69561,-7.16749 0.3866,-0.27079 0.70183,-0.52975 0.70051,-0.57546 -10e-4,-0.0457 -1.07942,-0.77503 -2.39576,-1.62071 -1.48538,-0.95427 -2.56113,-1.5376 -2.83559,-1.5376 -0.28874,0 -2.23986,1.13743 -5.62113,3.27687 -2.8484,1.80228 -5.80048,3.66797 -6.56018,4.14597 -1.65812,1.04328 -2.61973,1.29055 -4.62191,1.18848 -1.24853,-0.0636 -1.63951,-0.15823 -2.52743,-0.6114 l -1.0504,-0.5361 -2.26479,2.04448 c -2.12967,1.9225 -2.77769,2.56645 -4.24412,4.21749 l -0.60128,0.67698 1.61341,1.3327 c 3.51207,2.90099 5.71757,4.5442 6.0992,4.5442 0.29914,0 1.19691,-0.92455 3.91421,-4.031 4.23275,-4.83894 4.42589,-5.03301 4.7451,-4.76809 0.1299,0.1078 0.23617,0.26468 0.23617,0.34862 0,0.14002 -1.9499,2.41876 -6.1979,7.24314 -1.88957,2.14595 -2.44263,2.45848 -3.4797,1.96636 -0.32062,-0.15215 -2.15896,-1.54091 -4.0852,-3.08615 l -3.50226,-2.80951 -4.45457,5.10327 c -2.45002,2.80681 -5.65287,6.48723 -7.11747,8.17872 -5.37144,6.20365 -4.93436,5.34755 -5.09195,9.97336 -0.19579,5.74687 -0.16285,11.83668 0.0662,12.24565 0.18461,0.32957 11.36089,9.17114 11.61622,9.1896 0.061,0.004 0.18604,-0.3473 0.27788,-0.78156 z m 2.58619,-20.4836 c -0.9262,-0.37436 -6.63823,-4.96384 -7.14994,-5.74481 -0.46169,-0.70462 -0.47597,-1.72518 -0.0353,-2.52442 0.60878,-1.1042 5.66143,-6.93532 6.3325,-7.30817 0.20415,-0.11342 0.68023,-0.20888 1.05796,-0.21212 0.60588,-0.005 1.06604,0.2449 3.90633,2.12305 1.77075,1.17091 3.42525,2.37348 3.67667,2.67238 0.55826,0.66368 0.58994,1.35425 0.10393,2.26579 -0.9164,1.71875 -4.76829,7.71341 -5.31221,8.26732 -0.54604,0.55607 -0.69943,0.62221 -1.42123,0.61281 -0.44503,-0.006 -0.96644,-0.0741 -1.1587,-0.15183 z m 1.95215,-1.12589 c 0.6609,-0.72263 4.98576,-7.62046 5.30594,-8.46261 0.21308,-0.56045 -0.25918,-1.02609 -2.71501,-2.67691 -3.47879,-2.33846 -4.209,-2.75188 -4.66041,-2.63858 -0.38165,0.0958 -1.84659,1.68001 -4.9847,5.39058 -2.21888,2.62367 -2.15806,2.82392 1.80668,5.94822 3.92517,3.09313 4.43343,3.32939 5.2475,2.4393 z m -29.207,19.15764 c 0.43138,-0.45739 0.67778,-0.5818 1.15242,-0.5818 h 0.60372 l -0.0116,-1.95316 c -0.006,-1.07424 -0.0671,-2.805 -0.13485,-3.84614 -0.10979,-1.6863 -0.16439,-1.9263 -0.50005,-2.1981 -0.37909,-0.30697 -2.1261,-0.93367 -2.23227,-0.80078 -0.1259,0.15758 0.3623,9.96178 0.49604,9.96178 0.0429,0 0.32479,-0.26181 0.62658,-0.5818 z m 4.27087,-1.02717 c 2.34446,-2.12424 3.66089,-3.46711 4.37888,-4.46679 0.79295,-1.10404 1.86279,-2.1434 2.37292,-2.30532 0.31546,-0.10012 0.33135,-0.34268 0.44901,-6.85287 0.13081,-7.23834 0.18734,-7.7312 1.04408,-9.10223 0.63542,-1.01686 7.69515,-9.13563 18.53786,-21.31874 l 0.95581,-1.07397 0.003,-2.6085 c 10e-4,-1.43467 0.0456,-2.76988 0.0985,-2.96714 0.10719,-0.39957 -0.53441,-1.19031 -0.76777,-0.94624 -0.0743,0.0777 -0.41903,1.22479 -0.76606,2.54904 l -0.63096,2.40775 -3.02084,3.16086 c -4.91103,5.13864 -5.74352,5.90359 -6.42502,5.90359 -0.84435,0 -4.39026,-2.48215 -4.74129,-3.31892 -0.21271,-0.50705 -0.22101,-1.1446 -0.0607,-4.65997 0.23571,-5.1675 0.42428,-6.70194 0.9295,-7.56332 0.37896,-0.64612 1.73577,-2.02174 3.88216,-3.93598 l 1.04993,-0.93638 -1.58361,-1.02587 c -1.44282,-0.93467 -1.62853,-1.11576 -2.08885,-2.03694 -0.27788,-0.55609 -0.50524,-1.11132 -0.50524,-1.23386 0,-0.12253 -0.0403,-0.22278 -0.0895,-0.22278 -0.12064,0 -3.40478,2.51827 -4.64799,3.56408 -1.25348,1.05444 -6.65877,6.37742 -6.55776,6.45791 0.0412,0.0328 1.14718,0.46175 2.45773,0.95315 1.62399,0.60892 2.48421,1.02234 2.70119,1.29819 0.29277,0.3722 0.31792,0.70698 0.31277,4.16398 -0.007,4.74243 -0.19749,7.00329 -0.65522,7.77908 -0.1865,0.31609 -0.92435,1.29879 -1.63968,2.18377 -1.23125,1.52326 -2.98624,3.78128 -5.25568,6.76208 -1.41504,1.85858 -3.70607,5.07021 -4.74317,6.64908 l -0.8735,1.32981 0.10236,4.07256 c 0.0563,2.23991 0.15166,4.91295 0.21194,5.94011 l 0.10959,1.86756 0.89668,0.33549 c 1.49608,0.55976 2.1922,0.97923 2.44893,1.47569 0.2239,0.43299 0.59332,5.4299 0.59332,8.02556 0,0.44372 0.0657,0.80677 0.14599,0.80677 0.0803,0 0.69742,-0.49963 1.37138,-1.11029 z m -6.49047,-4.07881 c -0.10138,-2.48153 -0.20204,-4.52023 -0.22368,-4.53044 -0.92623,-0.43693 -8.62702,-6.24041 -8.55747,-6.44908 0.22277,-0.66828 0.58678,-0.47221 4.39949,2.36969 2.11332,1.57521 3.90454,2.83721 3.98051,2.80443 0.076,-0.0328 0.10969,-0.88241 0.0749,-1.88808 -0.24738,-7.16186 -0.35098,-9.56894 -0.43998,-10.22296 -0.0923,-0.67812 -0.009,-0.9344 0.88666,-2.74273 0.54366,-1.0971 1.45694,-2.70466 2.02952,-3.57235 l 1.04106,-1.57763 -0.18969,-2.82738 c -0.10433,-1.55506 -0.2375,-3.98764 -0.29592,-5.40573 -0.0932,-2.26268 -0.0731,-2.60583 0.16435,-2.8029 0.14882,-0.1235 0.38373,-0.18113 0.52203,-0.12805 0.20629,0.0792 0.25151,0.47813 0.25174,2.2211 1.6e-4,1.16853 0.11372,3.6309 0.25237,5.47193 0.16245,2.15723 0.19714,3.49179 0.0976,3.75366 -0.085,0.22348 -0.49195,0.92801 -0.90441,1.5656 -0.85941,1.32852 -2.46673,4.24257 -2.38512,4.32418 0.0301,0.0301 0.45506,-0.52424 0.94434,-1.23187 1.27693,-1.84676 4.95563,-6.7244 8.04777,-10.67065 3.12913,-3.99346 2.84443,-3.09768 3.01382,-9.4827 0.0917,-3.45447 0.0706,-4.28966 -0.11364,-4.51377 -0.28116,-0.34197 -4.16815,-1.80532 -4.77074,-1.79605 -0.33013,0.005 -0.70223,0.2926 -1.46876,1.13492 l -1.02662,1.12811 -0.7352,3.60514 c -0.40437,1.98283 -0.76786,3.63779 -0.80777,3.67769 -0.0399,0.0399 -2.01476,0.15014 -4.38856,0.24496 -8.66021,0.34594 -9.67391,0.71456 -10.47796,3.81025 -0.77309,2.9765 -0.96084,5.03095 -0.9353,10.23448 l 0.0236,4.80939 0.50877,0.59298 c 1.31742,1.53549 1.45503,1.87651 1.56704,3.88339 0.0572,1.02445 0.12045,3.42421 0.1406,5.3328 0.0331,3.12915 0.008,3.48819 -0.25027,3.65363 -0.22011,0.14074 -0.40025,0.11651 -0.77366,-0.10407 -0.26772,-0.15815 -0.61528,-0.28754 -0.77237,-0.28754 -0.24279,0 -0.25256,0.0398 -0.0652,0.26561 0.26502,0.31934 10.29455,9.10988 11.12369,9.74955 0.31999,0.24686 0.60765,0.37313 0.63926,0.28059 0.0316,-0.0925 -0.0255,-2.19857 -0.12687,-4.6801 z m 27.28983,2.36324 c 0.17934,-2.97058 0.057,-9.14499 -0.19039,-9.6072 -0.35133,-0.65648 -8.35507,-6.84926 -8.85218,-6.84926 -0.187,0 -0.38308,0.17462 -0.4788,0.42639 -0.0932,0.24512 -0.16186,2.70087 -0.1615,5.77638 5.7e-4,4.89278 0.0266,5.39262 0.30505,5.84868 0.25543,0.41844 7.05274,5.7727 8.08879,6.37158 0.18284,0.10569 0.51946,0.17396 0.74802,0.15171 0.41142,-0.04 0.41682,-0.0612 0.54101,-2.11828 z m 87.65234,-3.32454 c 2.537,-2.05706 5.21824,-4.23333 5.95833,-4.83616 l 1.34562,-1.09607 -0.0343,-1.07754 c -0.0268,-0.84055 -0.32679,-1.96263 -1.36422,-5.10175 -0.73147,-2.2133 -1.48328,-4.23954 -1.6707,-4.50275 -0.18742,-0.26321 -0.67982,-0.64269 -1.09423,-0.8433 l -0.75347,-0.36475 -0.61674,0.4287 c -1.9072,1.32571 -10.38287,8.17336 -10.50093,8.4839 -0.077,0.20255 -0.16603,2.3088 -0.19784,4.68055 -0.0688,5.13485 -0.13724,4.89724 2.04851,7.11611 l 1.45201,1.47401 0.40762,-0.31042 c 0.2242,-0.17074 2.48335,-1.99347 5.02033,-4.05053 z m 11.2934,2.11552 c 0.56883,-0.2961 6.75412,-6.319 7.18192,-6.99336 0.22297,-0.35148 0.38129,-0.66118 0.35184,-0.68822 -0.0295,-0.027 -0.52797,0.0236 -1.10779,0.11264 -1.18644,0.1821 -1.94003,-0.0139 -2.10975,-0.54862 -0.12618,-0.39754 -0.2253,-0.389 -0.7592,0.0654 -3.42853,2.91805 -3.68406,3.11078 -4.1244,3.11078 -1.00777,0 -1.0234,-0.0864 -1.09797,-6.06945 -0.0631,-5.06009 -0.0913,-5.48627 -0.40346,-6.0851 -0.2861,-0.54891 -1.12569,-1.69979 -3.70758,-5.08228 -0.3051,-0.39971 -0.45712,-0.79991 -0.45712,-1.2034 0,-1.42568 1.0518,-6.21223 2.51849,-11.46118 0.65311,-2.33731 0.66221,-2.40624 0.406,-3.07711 -0.26765,-0.70082 -2.87267,-4.28597 -3.17383,-4.36798 -0.1381,-0.0376 -0.87139,0.92636 -1.31561,1.72946 -0.12193,0.22045 -0.6774,9.34536 -0.84256,13.84132 -0.12819,3.48916 -0.31577,5.13357 -0.42524,5.69292 -0.0713,0.36448 -1.16885,-0.0529 -1.1424,-0.40995 0.0791,-1.06822 -0.26687,-1.30101 -0.45679,-1.50251 -0.42468,-0.45055 -1.0028,-1.23377 -1.89819,-2.49101 -2.264,-3.17892 -4.61961,-6.26222 -6.86677,-8.98807 -1.35653,-1.64548 -1.48885,-1.8698 -1.56394,-2.6513 -0.11944,-1.24308 0.3058,-9.24821 0.52674,-9.91581 0.15842,-0.47867 0.51425,-0.77256 2.26577,-1.87137 2.89992,-1.81927 3.66633,-2.18343 4.1823,-1.98726 0.50001,0.1901 3.41948,2.7942 5.73795,5.11811 l 1.69203,1.696 1.27769,-1.77048 c 0.70273,-0.97376 1.31492,-1.86747 1.36041,-1.98602 0.0455,-0.11854 -0.33357,-1.06506 -0.84236,-2.10337 -0.70947,-1.44785 -1.10683,-2.04783 -1.70496,-2.57432 -1.11776,-0.98389 -6.18843,-4.84129 -6.36402,-4.84129 -0.0812,0 -1.25956,0.69476 -2.61864,1.5439 -1.35908,0.84914 -3.7915,2.34742 -5.40537,3.32951 -1.61386,0.98209 -3.03192,1.90324 -3.15123,2.047 -0.2367,0.28521 -0.36247,2.72403 -0.57442,11.13838 l -0.12202,4.84377 2.24122,2.63644 c 1.23266,1.45005 3.34266,4.00158 4.68887,5.67009 2.08578,2.5851 2.51382,3.0332 2.89516,3.03069 0.60845,-0.004 7.23929,2.29166 7.89835,2.73449 0.8398,0.56428 1.50662,1.88967 2.5821,5.13229 1.66769,5.02814 1.64967,4.92227 1.7841,10.48809 l 0.11842,4.90259 0.43199,0.0702 c 0.56909,0.0925 1.67709,-0.0475 2.09427,-0.26466 z m 1.98848,-7.89521 2.2503,-1.87337 v -3.33215 c 0,-2.14966 0.0666,-3.461 0.18763,-3.69523 0.10321,-0.1997 0.81444,-0.9615 1.58052,-1.6929 l 1.39288,-1.32981 -10e-4,-3.01036 c -0.001,-3.40765 -0.31035,-6.96783 -0.9212,-10.62025 -0.83936,-5.0187 -0.65678,-4.82113 -4.45383,-4.8192 -1.47858,6.3e-4 -3.04363,0.0614 -3.4779,0.13486 -0.7886,0.13331 -0.78958,0.13431 -0.78958,0.80047 0,0.36684 -0.25645,1.57779 -0.56989,2.691 -1.69964,6.03645 -2.71976,11.02604 -2.38295,11.65539 0.0965,0.18026 0.70936,1.00423 1.36195,1.83103 1.4081,1.78399 2.28003,3.00188 2.6984,3.76907 0.27547,0.50515 0.31051,1.09492 0.35733,6.01419 0.0435,4.57009 0.0896,5.44574 0.28466,5.40237 0.12801,-0.0285 1.24538,-0.89476 2.48305,-1.92511 z m -139.19316,-2.37154 c -0.0116,-1.23087 -0.0675,-2.77912 -0.12415,-3.44056 -0.0955,-1.11415 -0.12887,-1.19697 -0.45435,-1.12593 -0.6313,0.13779 -5.99952,1.08184 -6.15176,1.08184 -0.20444,0 -0.008,3.2771 0.23655,3.95294 0.25426,0.70174 0.83319,0.99148 2.44146,1.22191 0.71167,0.10196 1.85496,0.27979 2.54065,0.39516 0.68569,0.11537 1.31106,0.19691 1.38971,0.18118 0.0787,-0.0157 0.1335,-1.03566 0.12189,-2.26654 z m 145.56752,1.43524 c 1.72603,-0.27009 2.64612,-0.48984 2.85948,-0.68293 0.36621,-0.33142 0.60278,-1.40754 0.75786,-3.44738 0.0892,-1.17293 0.0666,-1.45513 -0.11687,-1.4578 -0.12509,-0.002 -1.64868,-0.21825 -3.38575,-0.48094 -1.73707,-0.26268 -3.16993,-0.46689 -3.18414,-0.4538 -0.0305,0.0282 -0.10252,6.41151 -0.0757,6.71444 0.0248,0.27946 0.2051,0.26847 3.1451,-0.19159 z m -61.97978,-3.0555 c 1.33049,-0.96275 2.52285,-1.84513 2.64967,-1.96084 0.1935,-0.17653 0.0752,-0.43311 -0.73503,-1.59456 -3.46016,-4.96 -8.99001,-11.61879 -10.00407,-12.04645 -0.4174,-0.17604 -1.86377,-0.22559 -6.58432,-0.22559 h -6.04942 l -0.60475,-0.41039 -0.60474,-0.41039 -1.14022,1.69865 c -0.62712,0.93426 -2.31369,3.15729 -3.74794,4.94007 -5.69498,7.07893 -6.14833,7.67975 -5.90178,7.82144 0.12873,0.074 1.55898,0.98642 3.17835,2.02768 l 2.94431,1.89318 12.09043,0.009 12.09043,0.009 z m -19.60597,-1.36952 c -4.88582,-0.12506 -5.60091,-0.24458 -6.43126,-1.07493 -0.82552,-0.82553 -0.75633,-1.35199 0.49758,-3.7858 1.5814,-3.06945 3.5797,-6.38677 4.12233,-6.84337 0.27059,-0.22768 0.81448,-0.4562 1.23639,-0.51947 0.4143,-0.0621 3.05719,-0.0781 5.87309,-0.0355 4.60255,0.0696 5.17252,0.10859 5.64162,0.38569 0.38512,0.2275 0.82567,0.87641 1.68183,2.47729 1.57149,2.93842 3.12743,6.26143 3.25821,6.95854 0.14998,0.79945 -0.2657,1.52354 -1.13059,1.96945 -1.10558,0.56999 -5.41977,0.70692 -14.7492,0.46812 z m 14.00265,-1.15694 c 0.63674,-0.18814 0.95776,-0.56718 0.95776,-1.13088 0,-0.46518 -3.89489,-8.20975 -4.32449,-8.59877 -0.34555,-0.31291 -0.64389,-0.3321 -5.79102,-0.37251 -4.13168,-0.0324 -5.52587,0.008 -5.84226,0.16874 -0.71866,0.36549 -4.98681,7.89453 -4.98681,8.79676 0,0.43213 0.33866,0.82066 0.91424,1.04889 0.99074,0.39283 17.77865,0.47009 19.07258,0.0878 z m -78.19356,-1.72892 c 0.10791,-0.56036 -0.14408,-1.08637 -0.9757,-2.03672 -0.45912,-0.52465 -0.87875,-1.12918 -0.93251,-1.34338 -0.11892,-0.4738 -0.18297,-0.4578 -2.49545,0.62352 -1.06066,0.49596 -1.76391,0.93075 -1.89171,1.16955 -0.20733,0.38738 -0.53835,2.77212 -0.41296,2.975 0.038,0.0614 1.55004,-0.15945 3.36025,-0.49072 2.73498,-0.50051 3.30087,-0.65216 3.34808,-0.89725 z m 149.30688,-0.63733 c -0.0726,-0.72313 -0.25163,-1.47029 -0.4102,-1.7123 -0.16592,-0.25323 -0.7974,-0.66454 -1.53939,-1.00267 -1.43415,-0.65357 -1.54902,-0.67593 -1.54902,-0.30159 0,0.14945 -0.68635,0.97161 -1.52522,1.82702 -0.83887,0.85541 -1.49317,1.58733 -1.45401,1.6265 0.0391,0.0391 1.41744,0.26793 3.06282,0.50837 1.64538,0.24044 3.06641,0.46152 3.15783,0.49128 0.33239,0.10821 0.38362,-0.17791 0.25719,-1.43661 z m -62.91316,-3.49607 c -0.0111,-3.72253 0.003,-3.89106 0.36967,-4.57873 0.20967,-0.39267 0.65848,-1.02147 0.99736,-1.39732 0.79166,-0.87801 4.69402,-4.32691 10.67288,-9.43266 2.6056,-2.2251 4.87281,-4.17241 5.03823,-4.32735 0.28967,-0.2713 0.28608,-0.3149 -0.0975,-1.18146 -0.83681,-1.89059 -4.02997,-6.48687 -4.67986,-6.73626 -0.12361,-0.0474 -1.0744,0.42934 -2.11287,1.05948 -4.36381,2.64797 -7.05736,4.02901 -7.85814,4.02901 -0.43811,0 -1.26221,0.75751 -6.465,5.94261 l -5.96288,5.9426 0.0863,1.21937 c 0.0851,1.20323 0.0981,1.23181 0.9754,2.16094 2.00579,2.12418 6.599,7.75143 8.33281,10.20874 0.37092,0.52569 0.68356,0.9558 0.69476,0.9558 0.0112,0 0.0152,-1.73915 0.009,-3.86477 z m 41.36878,-5.5686 c 0.34613,-7.39262 0.79326,-14.57393 0.9298,-14.93305 0.0869,-0.22841 0.46168,-0.86263 0.83297,-1.40938 l 0.67507,-0.99408 -0.33106,-0.46493 c -0.6807,-0.95595 -6.53438,-6.34301 -6.89244,-6.34301 -0.18534,0 -5.05775,2.96408 -5.16942,3.14477 -0.10558,0.17083 -0.40844,5.41289 -0.463,8.01397 l -0.044,2.09938 0.67561,0.80959 c 2.60437,3.12083 5.27336,6.58972 7.94498,10.32608 0.80079,1.11996 1.51866,2.03628 1.59526,2.03628 0.0766,0 0.18742,-1.02853 0.24628,-2.28562 z m -52.37359,-2.83133 c 0.0442,-0.0716 0.0388,-0.58911 -0.0121,-1.15007 l -0.0925,-1.01994 -2.18064,-1.54711 c -6.49673,-4.60927 -8.01491,-5.67453 -8.1771,-5.73759 -0.22807,-0.0887 -1.2399,3.14364 -1.91994,6.1333 -0.49515,2.17677 -0.50632,2.30318 -0.23968,2.71013 0.15383,0.23477 0.44363,0.49289 0.64401,0.5736 0.45096,0.18165 11.86672,0.21756 11.97789,0.0377 z m 5.88088,-8.55428 c 3.04038,-3.03936 5.52796,-5.58262 5.52796,-5.65171 0,-0.0691 -0.12754,-0.1256 -0.28342,-0.1256 -0.30318,0 -1.55273,-0.76627 -6.26475,-3.84183 l -2.9743,-1.94133 -1.18137,0.83783 c -1.78422,1.26537 -6.10481,4.43389 -8.1564,5.98154 -1.7112,1.29086 -2.58302,2.21125 -2.58302,2.72695 0,0.12277 0.56766,0.61662 1.26147,1.09745 0.69381,0.48082 2.99397,2.1211 5.11147,3.64508 2.11751,1.52397 3.887,2.77691 3.93221,2.7843 0.0452,0.007 2.56977,-2.47331 5.61015,-5.51268 z m -44.58331,-0.99829 c 1.37252,-1.39422 3.24697,-3.32038 4.16545,-4.28034 l 1.66997,-1.74538 0.63966,-2.47182 c 0.42043,-1.62465 0.58729,-2.54915 0.48688,-2.69746 -0.084,-0.12409 -1.86048,-1.32071 -3.94767,-2.65914 -2.98863,-1.91649 -3.86046,-2.40289 -4.10346,-2.28935 -0.58172,0.27179 -4.60719,4.20259 -4.86446,4.75007 -0.34614,0.73659 -0.60509,3.471 -0.7319,7.72852 l -0.10498,3.52442 0.48323,0.42274 c 0.91802,0.80312 3.14396,2.24157 3.47732,2.24713 0.21545,0.004 1.22248,-0.89648 2.82996,-2.52939 z m 75.20399,-5.92214 c 0.10169,-3.33046 0.25949,-6.18669 0.35127,-6.35818 0.11005,-0.20564 0.11091,-0.41548 0.003,-0.61801 -0.25638,-0.47904 -3.71317,-3.7371 -5.88978,-5.55117 -1.80838,-1.50717 -2.01251,-1.63264 -2.4934,-1.53255 -0.8664,0.18034 -1.23216,0.50705 -1.33443,1.19197 -0.0517,0.34639 -0.2143,1.82663 -0.36129,3.28943 -0.31947,3.1794 -0.54301,3.77088 -1.6919,4.47671 -0.43622,0.26801 -0.81892,0.50573 -0.85043,0.52827 -0.0315,0.0226 0.41835,0.6261 0.99969,1.34123 1.31159,1.61343 2.38856,3.22748 3.30764,4.95721 0.38863,0.7314 0.81993,1.46233 0.95845,1.62427 0.13851,0.16195 1.28779,0.93892 2.55395,1.7266 1.54345,0.96018 2.58842,1.74298 3.17089,2.37537 l 0.86877,0.94322 0.11171,-1.17378 c 0.0614,-0.64558 0.19478,-3.89484 0.29633,-7.22059 z m -108.95415,5.20483 c 1.2524,-0.33492 3.92823,-0.56894 7.82525,-0.68438 l 3.50335,-0.10378 0.63088,-3.19925 c 0.34699,-1.75958 0.57323,-3.29252 0.50277,-3.40654 -0.18658,-0.3019 -4.35763,-0.0598 -7.51515,0.43619 -0.73277,0.1151 -2.80454,1.79003 -3.77641,3.05306 -0.80686,1.04858 -2.58361,3.94771 -2.58361,4.2157 0,0.083 0.1309,0.097 0.29089,0.0311 0.16,-0.0659 0.66491,-0.21988 1.12203,-0.34213 z m 134.64372,-0.2615 c 1.00567,-0.0969 2.45419,-0.12671 3.21892,-0.0663 l 1.39043,0.10979 -0.80863,-1.04129 c -1.14994,-1.48079 -4.09374,-4.40312 -5.46298,-5.42313 -1.68031,-1.25173 -1.81491,-1.22235 -3.24007,0.70732 -0.64073,0.86753 -1.16495,1.6166 -1.16495,1.66462 0,0.048 0.32312,0.48398 0.71803,0.96884 0.39492,0.48485 1.12331,1.46201 1.61866,2.17147 0.85087,1.21867 0.92829,1.28427 1.40137,1.18738 0.27539,-0.0564 1.32355,-0.18181 2.32922,-0.27866 z m -89.18068,-5.55319 c 0.86853,-0.7757 1.75584,-1.45686 1.9718,-1.51366 0.26792,-0.0705 0.74316,0.0726 1.49604,0.45024 0.95034,0.47676 1.31324,0.56321 2.6162,0.62324 1.27115,0.0586 1.63774,0.0144 2.29486,-0.27624 0.43013,-0.19026 3.30375,-1.94939 6.38583,-3.90917 6.31312,-4.01429 7.03021,-4.42617 7.70598,-4.42617 0.92368,0 0.87418,-0.0298 11.1071,6.68069 4.83788,3.17254 4.85581,3.18211 5.96293,3.18205 0.8184,-4e-5 1.18514,-0.12783 2.93021,-1.02102 2.81646,-1.44157 9.21978,-5.35312 9.57602,-5.84964 0.21738,-0.30297 0.3641,-1.06864 0.54152,-2.82585 0.13384,-1.32566 0.21934,-2.43444 0.18998,-2.46395 -0.0293,-0.0295 -2.51016,1.46436 -5.5129,3.31972 -5.33725,3.29783 -6.59178,3.94835 -7.63562,3.95938 -1.10517,0.0117 -2.17093,-0.562 -7.42628,-3.99741 -9.6658,-6.3185 -8.87542,-5.85187 -10.05395,-5.93565 -0.97252,-0.0691 -1.03892,-0.0512 -1.03892,0.2804 0,0.19485 -0.2431,0.60908 -0.54023,0.92051 -0.72103,0.75575 -10.1232,6.73 -11.17876,7.10312 -0.96547,0.34127 -3.44564,0.40709 -4.48812,0.1191 -0.3657,-0.10102 -2.87157,-1.55277 -5.5686,-3.2261 -10.61642,-6.5868 -16.87436,-10.36847 -16.9232,-10.22668 -0.0812,0.23573 1.30402,4.86685 1.59337,5.32698 0.3551,0.5647 0.029,0.34202 6.99414,4.77505 3.41503,2.17352 6.97811,4.60368 7.27758,4.80165 l 0.85499,0.5652 4.3399,2.55401 -1.85071,0.33463 -3.41523,-2.00556 -0.0344,1.34249 c -0.0389,1.51704 0.0561,2.75688 0.12467,2.75409 0.0686,-0.003 0.83529,-0.63974 1.70383,-1.41545 z m 40.42184,-5.23374 c 0.33579,-0.0933 1.71963,-0.86313 3.0752,-1.71081 l 2.46467,-1.54124 0.0516,-1.65436 c 0.0848,-2.71881 0.47758,-2.26094 -5.76864,-6.72427 -4.6249,-3.3048 -5.91453,-4.13802 -8.3748,-5.4109 l -2.90808,-1.50456 -3.6346,2.52021 c -4.17593,2.89557 -4.21572,2.94214 -4.21612,4.93548 l -2.6e-4,1.28826 0.54024,0.002 c 1.68678,0.006 1.45207,-0.12284 10.42355,5.70859 3.33305,2.16647 6.28774,4.00522 6.56595,4.08612 0.6955,0.20222 1.06928,0.2034 1.7813,0.006 z m -31.57172,-1.5527 c 0.69515,-0.20921 2.10993,-1.06081 8.18812,-4.92874 3.12637,-1.9895 2.86745,-1.61096 2.93492,-4.29086 0.0508,-2.01811 0.0994,-2.3393 0.43643,-2.88122 0.285,-0.45832 2.10271,-1.79662 7.31397,-5.38492 8.5733,-5.90327 8.21315,-5.62566 8.14883,-6.28121 -0.042,-0.42767 -0.35837,-0.77162 -1.86741,-2.0299 -1.8544,-1.54626 -2.05727,-1.80152 -2.07775,-2.61426 -0.0273,-1.08114 0.63069,-1.85603 3.67341,-4.32644 1.39764,-1.13477 1.81584,-1.57238 1.97334,-2.06497 0.10992,-0.34378 0.46389,-1.13386 0.78661,-1.75573 0.65209,-1.25659 -0.37189,-0.43885 9.40753,-7.51268 l 3.63491,-2.62926 -0.39349,-0.30199 c -1.20328,-0.92351 -7.23309,-4.88177 -8.33005,-5.46825 l -1.28749,-0.68835 -0.62412,0.37656 c -1.49559,0.90238 -13.37612,8.81368 -13.31975,8.86969 0.0343,0.0341 1.29664,0.53814 2.80515,1.12009 2.20165,0.84936 3.01071,1.25388 4.10108,2.05054 1.43876,1.05119 1.88308,1.59796 1.88308,2.31723 0,0.54978 -1.04863,2.85065 -1.54436,3.38858 -0.77965,0.84603 -14.41225,9.76615 -15.30034,10.01137 -0.41397,0.1143 -0.60475,0.27876 -0.68244,0.5883 -0.0612,0.24391 -1.46516,1.82759 -3.24757,3.66334 -2.82749,2.9121 -3.24968,3.42303 -4.24527,5.13752 -0.60805,1.04711 -1.24395,1.97791 -1.41311,2.06844 -0.16916,0.0905 -0.59495,0.1646 -0.94619,0.1646 -0.64739,0 -0.80344,-0.0809 -9.43995,-4.8948 -3.41986,-1.90618 -3.71389,-2.16359 -3.49317,-3.05801 0.0668,-0.27058 1.5452,-1.8903 3.81696,-4.18174 4.0376,-4.0726 6.16017,-6.50274 6.8241,-7.81295 1.2932,-2.552 1.46482,-2.71783 7.22069,-6.97693 4.83714,-3.57927 5.14719,-3.77131 6.57835,-4.07446 1.35028,-0.28602 4.62164,-0.33195 5.35806,-0.0752 0.48793,0.17009 0.75772,0.009 7.42426,-4.43035 3.80486,-2.53377 6.89436,-4.63042 6.86556,-4.65922 -0.0288,-0.0288 -1.84381,-0.47286 -4.03336,-0.98678 -3.3284,-0.78124 -4.14701,-0.9198 -4.99368,-0.84525 -1.633,0.14379 -4.63535,1.44571 -8.7395,3.78975 l -2.64995,1.51349 -0.9147,-0.10751 c -0.913,-0.1073 -0.91755,-0.10557 -2.44273,0.93303 -0.84042,0.5723 -2.36955,1.87218 -3.39808,2.88863 -2.18207,2.15644 -2.28164,2.42424 -1.17909,3.1712 1.72158,1.16631 1.70094,1.19335 -4.3908,5.75442 -2.85631,2.13862 -6.31533,4.85463 -7.6867,6.03559 -3.85297,3.31801 -7.71274,6.44234 -9.0724,7.34376 -1.33434,0.88463 -3.56004,2.8158 -5.8049,5.03673 -1.54264,1.52619 -2.42801,2.95219 -2.59659,4.18215 -0.11939,0.87097 -0.27533,0.73111 3.01216,2.70132 3.56956,2.13925 12.56725,7.63692 16.25643,9.93283 1.90133,1.18326 3.65918,2.21236 3.90633,2.28687 0.726,0.2189 2.7451,0.18265 3.56466,-0.064 z m 59.55269,-2.31192 c 5.2296,-3.21152 8.38395,-5.27578 8.55759,-5.60023 0.31117,-0.58144 1.01246,-4.93549 1.11234,-6.90614 0.12779,-2.52139 -0.10951,-4.02053 -0.80963,-5.11501 -0.45163,-0.706 -0.53962,-0.76962 -0.77865,-0.563 -1.45817,1.26054 -12.26517,9.62538 -12.81148,9.91635 -0.58004,0.30893 -1.99073,0.27027 -2.65402,-0.0727 l -0.56029,-0.28973 -1.76299,1.77335 -1.763,1.77336 0.74282,0.61202 c 1.41677,1.16732 5.08013,4.48647 6.06728,5.49721 0.54568,0.55873 1.06951,1.01587 1.16407,1.01587 0.0945,0 1.66773,-0.91859 3.49596,-2.04132 z m -18.2941,-1.91875 2.81717,-1.77859 0.90661,-1.82658 c 0.49863,-1.00461 1.49367,-3.0982 2.21118,-4.6524 1.78265,-3.86138 1.76631,-4.23872 -0.24272,-5.60387 -2.20142,-1.49589 -3.99315,-2.45816 -4.57706,-2.45816 -0.65521,0 -3.95928,1.43532 -7.30606,3.17384 -1.21557,0.63143 -2.40197,1.14805 -2.63645,1.14805 -0.39475,0 -4.21281,2.40824 -4.21281,2.65722 0,0.0569 1.87987,1.44576 4.17749,3.08651 2.29762,1.64075 4.47909,3.24938 4.84772,3.57473 l 0.67022,0.59155 0.12975,1.73563 c 0.0714,0.95459 0.13395,1.82913 0.13909,1.94341 0.005,0.11428 0.0655,0.20316 0.13401,0.19752 0.0686,-0.006 1.39241,-0.81063 2.94186,-1.78886 z m -73.64824,-0.58286 c 0.55869,-0.48727 1.98822,-1.62183 3.17674,-2.52126 1.18852,-0.89942 2.21205,-1.67888 2.27451,-1.73213 0.0625,-0.0533 -0.10493,-0.84484 -0.37198,-1.75908 -0.77626,-2.6575 -0.86346,-3.34504 -0.56811,-4.479 0.33524,-1.28704 1.13327,-2.7611 2.04205,-3.77188 0.77008,-0.85651 4.65703,-4.3839 5.72445,-5.19491 0.64293,-0.48848 0.7886,-0.7666 0.40152,-0.7666 -0.31849,0 -4.40895,3.09082 -7.4455,5.62595 -3.41792,2.85352 -5.46235,4.8024 -5.74411,5.47563 -0.14259,0.34069 -0.28766,1.74784 -0.38559,3.7401 -0.0864,1.75666 -0.20094,3.88585 -0.25465,4.73153 -0.0537,0.84567 -0.0454,1.53759 0.0186,1.53759 0.0639,0 0.57338,-0.39867 1.13206,-0.88594 z m 80.13975,-3.91379 c 1.53333,-1.41844 3.48027,-3.5908 3.59415,-4.01029 0.0621,-0.22856 0.12028,-1.70831 0.12939,-3.28832 0.0126,-2.19042 -0.0418,-3.01261 -0.22946,-3.46158 -0.28162,-0.67402 -1.53857,-1.89294 -8.20956,-7.96117 -1.30658,-1.18852 -2.48185,-2.36294 -2.61172,-2.60982 -0.30032,-0.57092 -0.30161,-1.35304 -0.003,-1.92812 0.12812,-0.24688 1.45585,-1.34515 2.95053,-2.44062 1.49467,-1.09546 3.70638,-2.72048 4.91489,-3.61116 l 2.1973,-1.61941 -0.35008,-0.97298 c -0.19255,-0.53514 -0.44129,-1.09771 -0.55275,-1.25014 -0.11147,-0.15244 -1.52416,-1.16946 -3.13933,-2.26005 l -2.93666,-1.9829 -0.70262,0.53459 c -0.38642,0.29402 -3.02147,2.20642 -5.85563,4.24977 -2.83417,2.04336 -5.40269,3.94766 -5.70784,4.23178 -0.60871,0.56678 -1.00729,1.26093 -1.5371,2.67697 -0.3117,0.83309 -0.53617,1.08513 -2.17338,2.4402 l -1.82579,1.51114 1.35981,0.85047 c 3.39182,2.12133 5.26812,3.40256 5.3694,3.66648 0.0604,0.1575 0.10989,0.95718 0.10989,1.77707 0,1.81541 -0.18257,2.22212 -1.41536,3.15288 -0.56788,0.42875 -0.91182,0.81298 -0.91182,1.01863 0,0.18411 0.52144,0.86796 1.17863,1.54572 l 1.17862,1.21552 3.29235,-1.62616 c 5.83694,-2.88296 6.50647,-3.0686 8.08091,-2.24051 1.64014,0.86264 4.56875,2.78214 4.96717,3.25563 0.62963,0.74827 0.84271,1.65098 0.61875,2.62127 -0.103,0.4462 -0.89672,2.31809 -1.76382,4.15975 -1.3584,2.88514 -1.52606,3.33296 -1.21168,3.23634 0.20068,-0.0617 0.73888,-0.45812 1.196,-0.88098 z m 6.59727,-2.69723 c 0.67484,-0.36116 12.90989,-9.96533 12.92533,-10.14601 0.0145,-0.16922 -4.6223,-7.37745 -5.97628,-9.29063 -2.07422,-2.93088 -2.54635,-3.27749 -6.69377,-4.91418 l -0.96011,-0.37889 0.10421,0.78562 c 0.21762,1.64049 -0.30824,2.19537 -5.37037,5.6668 -1.75833,1.20579 -3.22928,2.24465 -3.26879,2.30858 -0.0395,0.0639 1.45821,1.52638 3.32826,3.2499 2.11882,1.9528 3.53853,3.39249 3.76746,3.82051 0.34633,0.64748 0.36737,0.89159 0.36737,4.26071 0,2.62716 -0.0572,3.67415 -0.21606,3.95242 -0.20037,0.35106 -0.17622,0.39587 0.33245,0.61684 0.66679,0.28968 1.20531,0.31183 1.6603,0.0683 z m -88.6246,-1.18839 c 0.0332,-2.21464 1.47964,-10.39387 2.07169,-11.71442 0.13208,-0.29462 0.56025,-0.76507 0.95148,-1.04545 0.39124,-0.28037 2.89514,-2.13378 5.56423,-4.11868 l 4.85289,-3.6089 -0.0251,-1.49604 c -0.0229,-1.36031 0.0184,-1.5757 0.45407,-2.37395 0.27973,-0.51247 0.84433,-1.1698 1.35634,-1.57915 0.48242,-0.3857 0.87993,-0.73866 0.88336,-0.78437 0.0112,-0.14914 -2.93781,-1.66227 -3.23964,-1.66227 -0.58269,0 -7.15408,3.82209 -10.88014,6.32815 -3.45658,2.32483 -4.11767,2.98852 -5.22416,5.24471 -0.49861,1.01672 -1.22891,2.58756 -1.62287,3.49076 l -0.71629,1.64217 0.014,2.82586 c 0.0166,3.34255 0.4418,5.85459 1.10106,6.50442 0.38513,0.37963 4.09843,2.71068 4.32887,2.71749 0.0686,0.002 0.12719,-0.16463 0.13027,-0.37033 z m 34.6692,-1.74792 c 0.1847,-0.12345 1.72888,-2.72804 1.72888,-2.91613 0,-0.15208 -7.44707,-4.56561 -9.6128,-5.69706 l -1.88325,-0.98387 -1.31662,1.38124 c -0.72414,0.75968 -1.31662,1.44867 -1.31662,1.53109 0,0.16038 0.98643,0.74264 7.23087,4.26817 3.42055,1.9312 4.45306,2.46327 4.9037,2.52693 0.0457,0.006 0.16533,-0.0432 0.26584,-0.11037 z m 28.94852,-1.13931 c 1.02853,-0.69833 1.87005,-1.33068 1.87005,-1.40524 0,-0.0746 -0.16831,-0.32863 -0.37401,-0.5646 l -0.37401,-0.42904 -2.11939,1.41905 c -1.16567,0.78048 -2.1194,1.47567 -2.1194,1.54486 0,0.1477 0.83855,0.68991 1.08048,0.69864 0.0914,0.003 1.00775,-0.56536 2.03628,-1.26367 z m -2.08089,-1.50218 c 1.1742,-0.79138 2.17383,-1.50187 2.22142,-1.57886 0.0476,-0.077 -0.03,-0.30636 -0.17246,-0.50971 -0.14243,-0.20336 -0.25897,-0.62238 -0.25897,-0.93117 0,-0.5836 0.43432,-1.12301 1.63048,-2.02504 0.37419,-0.28217 0.59875,-0.62728 0.7025,-1.07965 0.17475,-0.76198 0.20639,-1.93087 0.0624,-2.30608 -0.0539,-0.14048 -1.55756,-1.17069 -3.34146,-2.28935 l -3.24346,-2.03393 -0.31182,0.40571 c -0.1715,0.22313 -0.31349,0.64451 -0.31552,0.93638 -0.003,0.47172 0.17064,0.67088 1.56581,1.79302 1.97384,1.58757 2.41994,2.1095 2.41994,2.83127 0,1.08433 -0.21434,1.30161 -3.60276,3.65209 -1.81261,1.25738 -3.36132,2.34674 -3.44157,2.4208 -0.11063,0.10212 3.50259,2.1011 3.87674,2.14479 0.0406,0.005 1.03453,-0.63888 2.20873,-1.43027 z m -59.12884,0.26997 c 0.12762,-0.20651 3.47014,-3.12331 5.14973,-4.49385 1.73433,-1.41521 4.40577,-3.42651 5.61016,-4.22384 0.53356,-0.35322 0.9558,-0.75619 0.9558,-0.91217 0,-0.43506 -0.5215,-5.56911 -0.57072,-5.61864 -0.0486,-0.0489 -9.5679,7.06085 -10.24438,7.65124 -0.37444,0.32678 -0.50946,0.78367 -1.11692,3.77937 -0.38005,1.8742 -0.7414,3.70088 -0.80302,4.05927 l -0.11203,0.65162 0.51746,-0.36846 c 0.2846,-0.20266 0.56086,-0.4387 0.61392,-0.52454 z m 37.77175,-4.66337 c 2.65298,-2.70179 3.40205,-3.64264 2.90013,-3.64264 -0.13152,0 -1.97547,-1.04782 -7.99286,-4.54187 -1.68105,-0.97611 -3.10792,-1.77475 -3.17084,-1.77475 -0.0629,0 -0.51873,0.50491 -1.01292,1.12203 -0.49419,0.61711 -1.86639,2.11293 -3.04933,3.32402 -1.18294,1.2111 -2.1194,2.22805 -2.08102,2.2599 0.0384,0.0319 1.17911,0.67335 2.53498,1.42558 1.35585,0.75222 3.82432,2.18488 5.48548,3.18369 1.66115,0.99881 3.09509,1.79746 3.18651,1.77476 0.0914,-0.0227 1.53136,-1.43152 3.19987,-3.13072 z m -21.52637,-6.28709 c 0.61711,-0.50194 1.12202,-0.9623 1.12202,-1.02301 0,-0.14964 -4.84521,-3.34483 -4.93539,-3.25467 -0.0766,0.0766 0.38742,4.87219 0.54499,5.63288 0.052,0.25087 0.21878,0.52569 0.3707,0.61071 0.28799,0.16117 0.25504,0.18353 2.89768,-1.96591 z m 27.61729,0.70742 c 0.83267,-0.52409 4.1352,-2.68666 7.33894,-4.80572 l 5.82499,-3.85283 0.53319,-1.15676 c 0.72657,-1.57632 0.70102,-1.87516 -0.22823,-2.66946 -1.31376,-1.12297 -2.3778,-1.65168 -5.92128,-2.94226 -3.31061,-1.20576 -3.49678,-1.2533 -4.90368,-1.25209 -1.74526,10e-4 -3.39337,0.2467 -4.09423,0.60913 -1.13802,0.58849 -9.69477,6.98482 -10.36169,7.74556 -0.6684,0.76241 -1.71799,2.54497 -1.71629,2.91483 6.3e-4,0.1869 0.77159,0.72699 2.28562,1.60168 1.25638,0.72583 3.44376,1.99216 4.86084,2.81406 3.7125,2.15322 3.66487,2.13073 4.30398,2.03299 0.31014,-0.0474 1.24517,-0.51504 2.07784,-1.03913 z m 35.77468,-3.73757 c 4.5095,-3.11822 4.49566,-3.10728 4.71323,-3.7291 0.21029,-0.60098 0.0383,-1.18425 -0.89698,-3.0414 -0.43694,-0.86765 -0.66677,-1.16805 -0.80932,-1.05782 -0.10949,0.0847 -2.18133,1.59567 -4.60409,3.35778 -2.42276,1.7621 -4.49851,3.32129 -4.61279,3.46483 -0.47761,0.59994 -0.25764,1.07177 1.07706,2.31026 0.71042,0.6592 1.33718,1.20151 1.39279,1.20514 0.0556,0.004 1.73866,-1.12573 3.7401,-2.50969 z m -57.69405,-1.7225 c 1.74968,-1.46279 5.24873,-4.19307 7.77566,-6.06727 2.52694,-1.87421 4.5965,-3.45766 4.59901,-3.51877 0.003,-0.0611 -0.24844,-0.26748 -0.55767,-0.45859 -0.66953,-0.4138 -1.01396,-1.14887 -0.87168,-1.86031 0.22133,-1.10663 2.52674,-3.56764 5.12493,-5.47082 0.80508,-0.58972 1.25086,-1.01398 1.11201,-1.05831 -0.12748,-0.0407 -1.08768,-0.35267 -2.13378,-0.69328 -1.0461,-0.34062 -2.10896,-0.61342 -2.36192,-0.60622 -1.00484,0.0286 -7.88277,4.38854 -13.37477,8.47837 -2.24347,1.67068 -6.76964,5.2497 -7.98875,6.31699 -0.76427,0.66911 -1.05083,1.3825 -1.0488,2.61104 10e-4,0.63997 0.0681,1.26808 0.14896,1.3958 0.0809,0.12772 1.44486,1.0742 3.03109,2.1033 2.31366,1.50103 2.93157,1.83318 3.12427,1.67939 0.13211,-0.10542 1.67176,-1.38852 3.42144,-2.85132 z"
         id="path1"
         sodipodi:nodetypes="sssssssssssssssscsssssscsssscccscssssssscssscsssssssscssssscsssssssssssssscssssscssscssssssssscssssscssscsssccssscsscccsssscsssscsssssssssscssscccssscsssccsscsssssscsssssscsssscssscssccssssssscsssssssssssccssssssscsssssssssssssssscsscsssccssssccscssssssssscsscssssssssscccssssssssssccsssssscsssscscsssssssssssscsccsscssssccsssscssscsccssscccssssssssscsscccsssscssssccsscsssssssssssssssscsssssssssssssssscsssssssscsscssssscsssssscsssssssssssssssssssssssssssssssssccssssssssssssssssscscssssscssscsssscssssssssssssssssscsssssscsscsssssssscsssscsssssscsssscsssssssssssccsssssscsssssccssscsssssscssssssssssssscsscssssccssssscscscssssssssssssssscssssscssscsssssssssssssssssscsssscsssscssssssssssssssssssssssssssssscssssssssscsssssscsssccsssccscssssssssccsssscssssssscssssscsssscccssssccccsssssssssssssssscsssssssssssssssssssssccsssssssscssssccssscsssscssssssscssssssssssscssssscssscsssssscscscscssssssssssscsccsscsssssssssscsssssssssssssssssssssssssssssssssssccccscscscssscsscsssccsssssssssssscsscsssssssssssssssssssssssscssssssssssssssssssssscccsssssscssssssssscsccsssssssssssssssscsscssssscssscssssscsssssscssssssccsssscsssssssssssssscsssssssscsssssssscssscsssscsscssssssssscscsssscssssssssscssssssssssssssssssssscssscsscssssssssssscssscsssssssssssss" /></g></g></svg>
